<svg width="143" height="42" viewBox="0 0 143 42" fill="none" xmlns="http://www.w3.org/2000/svg">
<path fill-rule="evenodd" clip-rule="evenodd" d="M84.8423 27.9942C84.4917 28.4571 83.3476 29.8392 81.9243 29.8392C79.9996 29.8392 79.5956 28.5528 79.5956 27.4741C79.5956 25.6999 81.0222 24.8792 84.8423 23.9813V27.9942ZM89.598 30.1672C89.5423 30.0295 89.3922 29.9514 89.2445 29.9846L89.1978 29.9959C88.7589 30.0865 88.4211 30.0609 88.1849 29.9091C87.8492 29.6926 87.686 29.205 87.686 28.4187V21.3061C87.686 18.5282 85.9459 17.1197 82.5138 17.1197C79.4391 17.1197 77.0309 18.505 77.0309 20.2734C77.0309 21.1827 77.6128 21.8399 78.4723 21.9386C79.0338 22.003 79.5693 21.761 79.9584 21.37C80.7142 20.6108 80.6162 19.708 79.6999 18.7384C80.2418 18.1984 81.2019 17.879 82.2966 17.879C84.0811 17.879 84.8423 18.8864 84.8423 21.2475V23.0448C84.4239 23.1679 84.0324 23.2845 83.3165 23.4445C81.8719 23.7675 79.89 24.197 78.3953 24.9835C77.1611 25.6272 76.5353 26.6439 76.5353 28.0057C76.5353 29.4875 77.5571 31.2183 80.4367 31.2183C82.0489 31.2183 83.4939 30.4898 84.9769 28.9279C85.1044 30.5512 85.7508 31.1593 87.3179 31.1593C88.0716 31.1593 88.6746 30.992 89.3916 30.6618C89.5855 30.5724 89.6781 30.3577 89.598 30.1672V30.1672Z" fill="white"/>
<path fill-rule="evenodd" clip-rule="evenodd" d="M120.708 17.8711C118.967 17.8711 116.97 18.5853 116.97 24.1544C116.97 28.402 118.283 30.4663 120.983 30.4663C123.567 30.4663 124.72 28.5197 124.72 24.1544C124.72 19.9264 123.407 17.8711 120.708 17.8711M120.86 31.2183C116.833 31.2183 113.796 28.2066 113.796 24.2126C113.796 20.3015 116.965 17.1197 120.86 17.1197C124.805 17.1197 127.894 20.1837 127.894 24.0959C127.894 28.495 124.243 31.2183 120.86 31.2183" fill="white"/>
<path fill-rule="evenodd" clip-rule="evenodd" d="M52.0885 27.6138V22.539H54.0341C56.9378 22.539 59.1465 21.9217 60.5995 20.7045C62.118 19.4322 62.4367 17.8202 62.4367 16.6921C62.4367 12.0517 57.978 11.0778 54.2373 11.0778L54.2523 11.0775H46.6653C46.4935 11.0775 46.3536 11.2178 46.3536 11.3902V11.411V11.4043C46.3536 11.5636 46.4502 11.7055 46.5993 11.7603C47.2751 12.0098 49.1107 11.6588 49.1107 13.6355L49.1109 27.611C49.1109 28.6278 48.6619 29.3448 46.6097 29.5394C46.4471 29.555 46.324 29.6889 46.324 29.8507V29.8985C46.324 30.071 46.4639 30.2113 46.6354 30.2113H54.7413C54.913 30.2113 55.0527 30.071 55.0527 29.8985V29.8558C55.0527 29.6942 54.9253 29.5574 54.7626 29.5446C52.5332 29.3654 52.0857 28.6719 52.0857 27.611V22.5478M59.0821 16.6337C59.0821 19.8625 58.2894 21.6413 54.2373 21.6413H52.0885V11.8851H54.3243C58.5166 11.8851 59.0821 14.2855 59.0821 16.6337" fill="white"/>
<path fill-rule="evenodd" clip-rule="evenodd" d="M65.7099 22.4178C66.033 19.4969 67.2687 17.8957 69.2094 17.8957C70.1807 17.8957 70.9007 18.1434 71.4098 18.654C72.1094 19.355 72.405 20.6212 72.2887 22.4178H65.7099ZM69.4306 17.1197C65.574 17.1197 62.4366 20.3408 62.4366 24.3005C62.4366 28.3088 65.378 31.2183 69.4306 31.2183C72.836 31.2183 74.493 29.3412 75.4427 27.9295C75.5364 27.7908 75.4954 27.6066 75.3495 27.5104L75.3047 27.4809C75.158 27.3845 74.9535 27.4114 74.8402 27.5433C73.588 28.9914 72.4922 29.8298 70.5995 29.8298C68.2057 29.8298 65.648 28.3081 65.648 24.0378V24.0064C65.6442 23.8177 65.6491 23.5591 65.6565 23.3179H75.4504C75.4773 23.3179 75.499 23.2986 75.5012 23.2742L75.5069 23.2014C75.6449 21.4499 75.1079 19.877 73.9948 18.7719C72.9053 17.6911 71.3268 17.1197 69.4306 17.1197V17.1197Z" fill="white"/>
<path fill-rule="evenodd" clip-rule="evenodd" d="M107.637 22.4563C107.636 22.4559 107.635 22.4559 107.634 22.4557C105.045 21.7627 104.036 21.0611 104.036 19.9537C104.036 18.6917 105.085 17.776 106.531 17.776C108.233 17.776 108.961 18.5518 110.757 21.4168L110.781 21.455C110.79 21.4693 110.806 21.4784 110.823 21.4784H111.07C111.251 21.4784 111.399 21.3373 111.399 21.1644V17.0472C111.399 17.0211 111.377 17 111.349 17H111.024C110.925 17 110.833 17.0419 110.77 17.1149L110.197 17.7805C109.473 17.3998 108.295 17 107.112 17C104.138 17 102.061 18.7541 102.061 21.2653C102.061 23.6224 103.699 24.5057 106.527 25.2345C109.275 25.9524 110.249 26.6989 110.249 28.0868C110.249 29.6288 108.683 30.3224 107.571 30.3224C105.502 30.3224 104.627 29.5887 102.644 26.1895L102.621 26.1492C102.612 26.134 102.595 26.1246 102.577 26.1246H102.329C102.148 26.1246 102 26.2655 102 26.4386V31.0514C102 31.0773 102.022 31.0986 102.05 31.0986H102.386C102.473 31.0986 102.557 31.0649 102.619 31.0067L103.525 30.1416C104.587 30.7698 106.173 31.0986 107.204 31.0986C108.751 31.0986 110.023 30.6311 110.882 29.7463C111.648 28.9579 112.071 27.8405 112.071 26.6001C112.071 24.4518 110.869 23.3287 107.637 22.4563" fill="white"/>
<path fill-rule="evenodd" clip-rule="evenodd" d="M92.369 29.5465C92.369 30.2707 92.1738 30.5077 90.9504 30.5805C90.7731 30.5911 90.6338 30.7309 90.6338 30.8991C90.6338 31.075 90.7856 31.2183 90.9725 31.2183H97.0157C97.1994 31.2183 97.3489 31.0772 97.3489 30.9043C97.3489 30.7337 97.2079 30.5937 97.0274 30.5853C95.6288 30.5217 95.2668 30.3085 95.2668 29.5461V21.1962C96.2612 19.6373 96.9766 18.8216 98.1831 18.5751C98.1245 18.7719 98.0864 19.0083 98.0864 19.1997C98.0864 20.2141 98.8385 20.9222 99.9148 20.9222C100.972 20.9222 101.711 20.2141 101.711 19.1997C101.711 18.2403 101.075 17.1197 99.2832 17.1197C97.8138 17.1197 96.4094 17.9134 95.2037 19.8127V17.6649C95.2037 17.4459 95.0123 17.27 94.7801 17.2758L90.9725 17.3716C90.7877 17.3766 90.6436 17.5163 90.6436 17.6898V17.7363C90.6436 17.8938 90.7652 18.0286 90.926 18.0499C92.1953 18.2198 92.3703 18.7887 92.3692 19.378L92.369 29.5465Z" fill="white"/>
<path fill-rule="evenodd" clip-rule="evenodd" d="M132.015 17.2139C132.1 17.2139 132.181 17.2459 132.242 17.3043C132.307 17.3647 132.342 17.4463 132.343 17.5334L132.356 19.9267C132.356 19.9267 133.558 17.1197 137.458 17.1197H137.493C139.924 17.1197 141.318 18.6345 141.318 21.2751V29.5383C141.318 30.2666 141.508 30.5049 142.692 30.5776C142.865 30.5881 143 30.7284 143 30.8978C143 31.0743 142.853 31.2183 142.672 31.2183H137.411C137.23 31.2183 137.082 31.0739 137.082 30.8967C137.082 30.7252 137.214 30.5851 137.382 30.571C138.338 30.4913 138.491 30.2553 138.491 29.5383V22.0808C138.491 19.6185 137.774 18.6595 135.935 18.6595C134.693 18.6595 133.675 19.7195 133.04 20.6087C133.04 20.6087 132.716 21.0061 132.364 21.7535L132.403 29.5381C132.403 30.2539 132.552 30.4896 133.48 30.5702C133.648 30.5845 133.779 30.7246 133.779 30.8893C133.779 31.0739 133.632 31.2183 133.451 31.2183H128.223C128.042 31.2183 127.894 31.0743 127.894 30.8974C127.894 30.7284 128.029 30.5881 128.201 30.5772C129.387 30.5043 129.576 30.266 129.576 29.5383V19.3378C129.576 18.7425 129.406 18.1678 128.169 17.9963C128.013 17.9748 127.894 17.8387 127.894 17.6796V17.6327C127.894 17.4573 128.035 17.3164 128.215 17.3114L132.015 17.2139Z" fill="white"/>
<path fill-rule="evenodd" clip-rule="evenodd" d="M36.4754 30.2683C42.9551 18.91 40.7869 7.68469 31.475 2.67782C21.1862 -2.8558 7.77284 0.154979 1.9909 12.0068C-1.99153 20.1672 -0.183204 34.3492 9.08318 39.4337C18.3481 44.5154 30.7816 40.2515 36.4754 30.2683ZM33.3292 18.1987C33.6451 15.9129 33.078 13.1267 31.255 11.29L31.2286 11.265C27.7265 7.53204 22.8642 7.29778 19.7852 7.36986C16.3815 7.45164 13.9371 8.51207 11.9378 9.49625C10.1926 10.3543 8.61936 11.8306 7.98035 12.5639C7.57344 13.031 6.88154 13.9958 7.2532 14.8608C7.55875 15.5788 8.70603 15.5317 9.13791 15.2253C9.36532 15.0635 9.60012 14.8571 9.85833 14.6302C10.0888 14.4276 10.338 14.2086 10.6172 13.9902C13.2452 11.9387 15.575 10.6468 21.0029 10.6468C26.4309 10.6468 29.3718 13.8405 29.3718 16.6919C29.3718 19.5433 27.9439 21.4798 25.2454 22.744C23.9101 23.3691 22.4822 23.8529 20.6842 23.9181C20.8149 21.154 20.8825 18.5383 20.8825 18.5383C20.8888 18.2107 20.9037 17.8931 20.918 17.59C20.9903 16.0525 21.0452 14.886 19.8659 14.6625C18.4572 14.395 15.8615 14.6584 15.813 16.1762C15.7498 15.9503 16.0804 28.6144 16.1406 28.8639L16.1641 29.155C16.192 29.4766 16.3125 29.7594 16.5255 29.9854C16.7385 30.2085 17.0837 30.3471 17.3936 30.3804C17.4421 30.3846 17.4906 30.3887 17.5391 30.3887C17.8343 30.3887 18.2501 30.3388 18.6687 30.2279C19.1976 30.0852 19.7293 29.8426 20.0364 29.4642C20.1921 29.2729 20.3199 29.0871 20.386 28.7447C20.4315 28.5119 20.5211 27.0411 20.5446 26.6142C23.3989 26.5892 26.3001 26.0847 28.508 24.8149C31.2918 23.2166 32.9664 20.8047 33.3292 18.1987ZM18.56 31.847C18.8817 31.9066 19.199 32.0494 19.4825 32.2573H19.4826C19.9967 32.6343 20.3052 33.2235 20.3111 33.8265C20.3155 34.3463 20.0849 34.8106 19.6603 35.1392C19.2945 35.4164 18.8245 35.5661 18.3015 35.5661H18.3C18.0606 35.5661 17.8211 35.5328 17.5875 35.4719C17.1821 35.3623 16.856 35.1808 16.643 34.9451C16.452 34.7358 16.3242 34.4544 16.2684 34.1286C16.1832 33.6213 16.3169 33.0959 16.64 32.6579C17.0279 32.1298 17.6228 31.8151 18.228 31.8151C18.3382 31.8151 18.4513 31.8262 18.56 31.847Z" fill="white"/>
</svg>
